<?xml version="1.0" encoding="UTF-8"?>
<svg id="Capa_1" data-name="Capa 1" xmlns="http://www.w3.org/2000/svg" viewBox="0 0 688.8 294.38">
  <defs>
    <style>
      .cls-1 {
        fill: #88312e;
      }

      .cls-2 {
        letter-spacing: -.03em;
      }

      .cls-3 {
        stroke: #88312e;
        stroke-miterlimit: 10;
      }

      .cls-3, .cls-4 {
        fill: none;
      }

      .cls-5 {
        fill: #842d2d;
        font-family: RedOctober, 'Red October';
        font-size: 23px;
      }
    </style>
  </defs>
  <g>
    <g>
      <path class="cls-1" d="m418.7,235.44l.92-.92,24.22,24.22-39.18-4.04,21.26,21.26-.92.92-24.22-24.22,39.15,4.01-21.23-21.23Z"/>
      <path class="cls-1" d="m424.39,229.74l8.56-8.56.92.92-7.51,7.51,12.99,12.99,6.27-6.27.92.92-6.27,6.27,8.12,8.12,7.51-7.51.92.92-8.56,8.56-23.87-23.87Z"/>
      <path class="cls-1" d="m469.15,233.56l-34.76-13.81,1.18-1.18,31.32,12.41-5.92-14.77-16.46-6.59,1.15-1.15,14.9,6.05-5.92-15.02.89-.89,6.53,16.46,14.99,5.95-12.32-31.61.86-.86,13.69,34.89-16.71-6.59,6.59,16.71Z"/>
      <path class="cls-1" d="m510.27,191.61l-1.05,1.05-9.55-9.55-21.58-7.07,1.15-1.15,19.93,6.49-6.62-19.8.96-.96,7.22,21.42,9.55,9.55Z"/>
      <path class="cls-1" d="m517.96,177.3c-22.97-.04-22.44-35.02.24-34.93,23.03.14,22.87,35.12-.24,34.93Zm11.52-28.81c-14.93-14.94-37.63,7.8-22.73,22.73,14.98,14.94,37.66-7.75,22.73-22.73Z"/>
      <path class="cls-1" d="m522.43,131.71c9.63-12.2,27.16,2.51,16.62,13.81l16.87.45-1.37,1.37-14.8-.35,7.58,7.58-1.02,1.02-23.87-23.87Zm15.31,13.27c9.72-8.85-4.48-22.87-13.37-13.37l13.37,13.37Z"/>
      <path class="cls-1" d="m535.38,118.75l1.02-1.02,8.75,8.75,1.34-18.84,1.27-1.27-1.4,20.44,28.07.64-1.4,1.4-26-.54,13.27,13.27-1.05,1.05-23.87-23.87Z"/>
    </g>
    <g>
      <path class="cls-4" d="m659.67,127.39c-93.11-89.54-224.53,45.21-136.6,137.69,92.97,89.18,224.88-45.09,136.6-137.69Zm-38.77-3.64c5.06,2.53,10.12,5.06,12.66,7.59-2.53-2.53-7.59-5.06-12.66-7.59Z"/>
      <path class="cls-4" d="m214.88,98.11c-90.5,2.89-89.56,135.75-.14,139.18,90.15-3.98,91.7-135.7.14-139.18Z"/>
      <path class="cls-1" d="m205.17,29.45c-53.34-2-93.7,57.41-72.18,106.04,15.48,40.55,68.16,61.73,105.55,39.68l-53.93,61.83h10.35c17.01-21.7,72.29-76.36,80.95-101.51,22.53-48.6-17.44-107.84-70.73-106.04Zm62.15,105.71c-32.53,67.81-129.26,45.16-130.11-29.23-.95-36.87,30.94-70.1,67.96-69.18,48.87-1.75,83.94,55.22,62.15,98.41Z"/>
      <path class="cls-1" d="m365.55,177.36c38.81-120.56-141.83-149.14-146.78-24.36h8.45c-3.02-61.61,74.85-99.5,117-52.91,18.66,20.54,23.49,52.11,11.42,77.27-13.22,35.46-105.48,79.32-135.25,101.64h150v-9h-121.64c30.87-21.77,105.26-55.64,116.78-92.64Z"/>
    </g>
    <g>
      <path class="cls-4" d="m438.07,215.67c58.26,1.7,106.38-56.19,95.64-113.21l-111.91,111.91c5.26.84,10.68,1.29,16.28,1.29Z"/>
      <path class="cls-4" d="m438.07,20.65c-117.86,2.23-131.56,171.78-16.28,193.73l111.91-111.91c-6.29-45.07-49.48-83.2-95.64-81.82Z"/>
    </g>
    <polyline class="cls-3" points="534.59 184.06 601.14 117.51 534.59 50.97"/>
    <line class="cls-3" x1="517.8" y1="13.72" x2="635.48" y2="131.4"/>
    <line class="cls-3" x1="457.01" y1="280.24" x2="574.69" y2="162.56"/>
    <polyline class="cls-3" points="110.4 13.89 43.86 80.44 110.4 146.98"/>
    <line class="cls-3" x1="148.79" y1="205.82" x2="31.11" y2="88.14"/>
    <line class="cls-3" x1="86.17" y1="19.52" x2=".35" y2="105.34"/>
    <g>
      <path class="cls-4" d="m438.07,20.65c-25.85,0-48.05,9.07-66.61,27.16l150.02,20.8c-17.59-29.19-49.15-48.64-83.41-47.97Z"/>
      <path class="cls-1" d="m159.4,106.49v101.51h9V19.45l-9-1.25v88.29Z"/>
      <polygon class="cls-1" points="116.4 0 116.4 8 148.4 8 148.4 14.04 157.4 15.29 157.4 0 116.4 0"/>
      <path class="cls-1" d="m503.32,39.11c-40.3-42.4-112.76-41.21-151.61,2.59l10.23,1.42c42.52-44.14,120.37-32.13,150.02,20.8l10.86,1.51c-4.93-9.41-11.39-18.2-19.51-26.32Z"/>
      <path class="cls-1" d="m332.52,117.75c-1.44,47.06,36.4,94.44,82.25,103.65l7.02-7.02c-76.57-11.07-108.19-114.41-50.33-166.56l-10.23-1.42c-19.12,20.27-28.71,44.05-28.71,71.36Z"/>
      <path class="cls-1" d="m521.48,68.61c6.27,10.4,10.37,21.68,12.22,33.85l7.67-7.67c-1.9-8.67-4.95-16.88-9.03-24.68l-10.86-1.51Z"/>
    </g>
  </g>
  <text class="cls-5" transform="translate(486.15 285.33) rotate(-45)"><tspan x="0" y="0">RED </tspan><tspan class="cls-2" x="65.96" y="0">W</tspan><tspan x="87.4" y="0">AVE</tspan></text>
</svg>