<?xml version="1.0" encoding="UTF-8"?>
<svg id="Capa_1" data-name="Capa 1" xmlns="http://www.w3.org/2000/svg" viewBox="0 0 688.13 293.21">
  <defs>
    <style>
      .cls-1 {
        stroke: #575756;
        stroke-miterlimit: 10;
      }

      .cls-1, .cls-2 {
        fill: none;
      }

      .cls-3 {
        fill: #1d1d1b;
      }

      .cls-4 {
        fill: #010101;
      }
    </style>
  </defs>
  <g>
    <path class="cls-3" d="m418.7,234.97l.92-.92,24.22,24.22-39.18-4.04,21.26,21.26-.92.92-24.22-24.22,39.15,4.01-21.23-21.23Z"/>
    <path class="cls-3" d="m424.39,229.28l8.56-8.56.92.92-7.51,7.51,12.99,12.99,6.27-6.27.92.92-6.27,6.27,8.12,8.12,7.51-7.51.92.92-8.56,8.56-23.87-23.87Z"/>
    <path class="cls-3" d="m469.15,233.1l-34.76-13.81,1.18-1.18,31.32,12.41-5.92-14.77-16.46-6.59,1.15-1.15,14.9,6.05-5.92-15.02.89-.89,6.53,16.46,14.99,5.95-12.32-31.61.86-.86,13.69,34.89-16.71-6.59,6.59,16.71Z"/>
    <path class="cls-3" d="m510.27,191.15l-1.05,1.05-9.55-9.55-21.58-7.07,1.15-1.15,19.93,6.49-6.62-19.8.96-.96,7.22,21.42,9.55,9.55Z"/>
    <path class="cls-3" d="m517.96,176.84c-4.89-.07-9-1.77-12.32-5.09-3.32-3.32-4.98-7.42-4.97-12.29.01-4.87,1.72-9.01,5.14-12.43,3.42-3.42,7.54-5.12,12.38-5.12,4.84,0,8.93,1.67,12.27,5.01,3.34,3.34,5.05,7.45,5.12,12.32.07,4.87-1.55,8.97-4.89,12.3l-.48.48c-3.29,3.29-7.38,4.9-12.27,4.82Zm11.52-28.81c-3.13-3.13-6.92-4.7-11.38-4.73-4.46-.02-8.25,1.53-11.38,4.66-3.13,3.13-4.69,6.93-4.68,11.39.01,4.47,1.58,8.27,4.71,11.4s6.93,4.71,11.41,4.73c4.48.02,8.28-1.53,11.4-4.65s4.67-6.92,4.65-11.39c-.02-4.48-1.6-8.28-4.73-11.41Z"/>
    <path class="cls-3" d="m522.43,131.24l1.37-1.37c2.06-2.06,4.63-3.11,7.7-3.15,3.08-.04,5.64.96,7.69,3.01,2.05,2.05,3.03,4.62,2.94,7.72-.08,3.1-1.04,5.56-2.86,7.38l-.22.22,16.87.45-1.37,1.37-14.8-.35,7.58,7.58-1.02,1.02-23.87-23.87Zm15.31,13.27l.57-.57c1.72-1.72,2.58-3.89,2.58-6.53,0-2.63-.9-4.85-2.71-6.65-1.8-1.8-4.05-2.69-6.75-2.67-2.69.02-4.91.9-6.65,2.64l-.41.41,13.37,13.37Z"/>
    <path class="cls-3" d="m535.38,118.29l1.02-1.02,8.75,8.75,1.34-18.84,1.27-1.27-1.4,20.44,28.07.64-1.4,1.4-26-.54,13.27,13.27-1.05,1.05-23.87-23.87Z"/>
  </g>
  <g>
    <path class="cls-2" d="m659.67,126.93c-18.98-19.16-41.77-28.74-68.37-28.74s-49.35,9.58-68.23,28.74c-18.89,19.16-28.33,42.13-28.33,68.91,0,.07,0,.15,0,.22.05,26.69,9.49,49.54,28.32,68.55,18.88,19.07,41.63,28.6,68.23,28.6s49.39-9.53,68.37-28.6c18.92-19.01,28.4-41.86,28.46-68.55,0-.07,0-.15,0-.22,0-26.78-9.49-49.75-28.46-68.91Zm-38.77-3.64c5.06,2.53,10.12,5.06,12.66,7.59-2.53-2.53-7.59-5.06-12.66-7.59Z"/>
    <path class="cls-2" d="m214.88,97.65c-18.79,0-34.82,6.77-48.07,20.29-13.26,13.53-19.88,29.83-19.88,48.89,0,10.55,2.05,20.29,6.14,29.23,3.3,7.22,7.92,13.91,13.88,20.07,13.35,13.8,29.28,20.7,47.8,20.7s34.59-6.95,48.21-20.83c6.03-6.15,10.71-12.79,14.07-19.94,4.23-9,6.36-18.79,6.36-29.37,0-18.97-6.72-35.23-20.16-48.76-13.44-13.53-29.55-20.29-48.35-20.29Z"/>
    <path class="cls-4" d="m205.17,28.65c-21.34,0-39.63,7.49-54.88,22.47-15.25,14.98-22.88,33.05-22.88,54.2,0,10.51,1.86,20.29,5.58,29.37,3.77,9.2,9.44,17.66,17.03,25.38,15.07,15.35,32.69,23.02,52.84,23.02,6.54,0,13.35-.86,20.43-2.59,7.08-1.72,12.16-3.77,15.25-6.13l-53.93,61.83h10.35l59.65-68.37c9.64-11.07,16.72-22.12,21.3-33.15,4.13-9.94,6.21-19.87,6.21-29.77,0-20.88-7.49-38.81-22.47-53.8-14.98-14.98-33.14-22.47-54.48-22.47Zm62.15,106.04c-3.36,7.14-8.05,13.79-14.07,19.94-13.62,13.89-29.69,20.83-48.21,20.83s-34.46-6.9-47.8-20.7c-5.96-6.16-10.58-12.86-13.88-20.07-4.09-8.94-6.14-18.68-6.14-29.23,0-19.06,6.63-35.36,19.88-48.89,13.25-13.53,29.28-20.29,48.07-20.29s34.91,6.77,48.35,20.29c13.44,13.53,20.16,29.78,20.16,48.76,0,10.58-2.12,20.37-6.36,29.37Z"/>
    <path class="cls-4" d="m365.7,177.32c3.75-9.09,5.66-18.73,5.66-28.96,0-20.7-6.81-38.58-20.43-53.66-13.62-15.07-31.55-22.61-53.8-22.61s-40.82,7.72-55.7,23.15c-14.89,15.44-22.34,34.69-22.34,57.75h8.44c0-20.34,6.58-37.63,19.74-51.89,13.16-14.25,29.64-21.38,49.44-21.38s35.68,6.81,47.67,20.43c11.98,13.62,17.97,29.6,17.97,47.94,0,10.29-2.19,20.04-6.57,29.23-7.28,15.3-20.62,29.07-40.01,41.32l-95.06,60.19h149.81v-8.99h-121.48l74.09-46.31c21.17-13.27,35.32-28.69,42.54-46.22Z"/>
  </g>
  <g>
    <path class="cls-2" d="m438.07,215.2c26.6,0,49.39-9.53,68.37-28.6,18.92-19.01,28.4-41.86,28.46-68.55,0-.07,0-.15,0-.22,0-5.44-.41-10.71-1.19-15.83l-111.91,111.91c5.26.84,10.68,1.29,16.28,1.29Z"/>
    <path class="cls-2" d="m438.07,20.18c-26.6,0-49.35,9.58-68.23,28.74-18.89,19.16-28.33,42.13-28.33,68.91,0,.07,0,.15,0,.22.05,26.69,9.49,49.54,28.32,68.55,14.91,15.05,32.23,24.14,51.95,27.31l111.91-111.91c-3.07-20.11-12.15-37.81-27.27-53.08-18.98-19.16-41.77-28.74-68.37-28.74Z"/>
  </g>
  <polyline class="cls-1" points="534.59 183.59 601.14 117.05 534.59 50.5"/>
  <line class="cls-1" x1="517.8" y1="13.26" x2="635.48" y2="130.94"/>
  <line class="cls-1" x1="457.01" y1="279.77" x2="574.69" y2="162.09"/>
  <polyline class="cls-1" points="110.4 13.43 43.86 79.97 110.4 146.51"/>
  <line class="cls-1" x1="148.79" y1="205.35" x2="31.11" y2="87.67"/>
  <line class="cls-1" x1="86.17" y1="19.06" x2=".35" y2="104.87"/>
  <g>
    <path class="cls-2" d="m438.07,20.18c-25.85,0-48.05,9.07-66.61,27.16l150.02,20.8c-4.09-6.78-9.08-13.2-15.04-19.23-18.98-19.16-41.77-28.74-68.37-28.74Z"/>
    <polygon class="cls-4" points="159.39 106.23 159.39 207.74 168.37 207.74 168.37 106.23 168.37 19.19 159.39 17.94 159.39 106.23"/>
    <polygon class="cls-4" points="116.65 0 116.65 7.9 148.79 7.9 148.79 13.94 157.78 15.19 157.78 0 116.65 0"/>
    <path class="cls-4" d="m503.32,38.65c-20.7-20.7-45.58-31.05-74.63-31.05s-53.93,10.4-74.63,31.19c-.81.81-1.57,1.64-2.34,2.46l10.23,1.42c18.56-18.09,40.76-27.16,66.61-27.16s49.39,9.58,68.37,28.74c5.97,6.03,10.96,12.45,15.04,19.23l10.86,1.51c-4.93-9.41-11.39-18.2-19.51-26.32Z"/>
    <path class="cls-4" d="m332.52,117.29c0,.26.02.51.02.77.18,28.1,10.38,52.59,30.63,73.46,15.09,15.57,32.3,25.36,51.61,29.42l7.02-7.02c-19.72-3.17-37.05-12.25-51.95-27.31-18.84-19.01-28.27-41.86-28.32-68.55,0-.07,0-.15,0-.22,0-26.78,9.44-49.75,28.33-68.91.53-.54,1.08-1.05,1.62-1.57l-10.23-1.42c-19.12,20.27-28.71,44.05-28.71,71.36Z"/>
    <path d="m521.48,68.15c6.27,10.4,10.37,21.68,12.22,33.85l7.67-7.67c-1.9-8.67-4.95-16.88-9.03-24.68l-10.86-1.51Z"/>
  </g>
</svg>